<?xml version="1.0" standalone="no"?>
<!DOCTYPE svg PUBLIC "-//W3C//DTD SVG 20010904//EN"
 "http://www.w3.org/TR/2001/REC-SVG-20010904/DTD/svg10.dtd">
<svg version="1.0" xmlns="http://www.w3.org/2000/svg"
 width="275.000000pt" height="275.000000pt" viewBox="0 0 275.000000 275.000000"
 preserveAspectRatio="xMidYMid meet">
<metadata>
Created by potrace 1.11, written by Peter Selinger 2001-2013
</metadata>
<g transform="translate(0.000000,275.000000) scale(0.100000,-0.100000)"
fill="#000000" stroke="none">
<path d="M1296 1933 c-1 -1 -31 -4 -66 -7 -70 -6 -119 -14 -132 -22 -4 -3 -8
0 -8 5 0 8 -6 8 -17 1 -16 -9 -101 -33 -160 -46 -12 -2 -35 -9 -50 -16 -16 -6
-33 -12 -39 -13 -59 -13 -372 -178 -389 -205 -3 -6 -26 -10 -51 -10 l-44 0 0
40 c0 36 -2 40 -25 40 -22 0 -25 -4 -25 -39 l0 -40 -47 -3 -48 -3 2 -243 c1
-224 3 -245 20 -257 35 -27 51 -19 49 25 -3 65 22 85 29 23 4 -42 14 -76 23
-85 10 -10 72 -29 72 -22 0 3 -11 51 -25 107 -32 128 -35 147 -27 147 11 0 56
119 49 127 -4 3 -20 7 -37 7 -32 1 -34 -1 -61 -79 l-17 -50 -1 52 c-1 46 3 55
31 83 18 16 41 33 51 36 9 3 17 9 17 13 0 9 72 60 105 75 26 12 127 17 120 6
-9 -15 23 -19 36 -4 10 12 13 12 25 -3 11 -16 13 -16 19 -2 8 20 95 22 95 2 0
-17 17 -17 23 0 4 9 8 9 15 -2 8 -11 10 -11 14 0 5 16 118 21 115 5 -3 -15 35
-20 43 -5 12 19 112 19 127 -1 10 -12 14 -13 21 -2 10 14 145 25 137 11 -3 -4
0 -11 6 -15 6 -3 15 -1 19 6 10 16 131 19 137 3 3 -7 10 -10 16 -6 19 12 142
11 149 -1 5 -8 13 -8 25 -1 21 12 113 12 131 1 7 -4 18 -4 25 1 21 16 124 7
143 -12 16 -15 19 -16 29 -2 15 21 129 22 145 1 9 -10 17 -11 30 -4 39 21 71
11 134 -42 70 -61 103 -98 97 -113 -10 -29 -14 -184 -7 -265 4 -37 50 -61 90
-48 59 20 90 63 95 131 2 30 -1 37 -16 36 -43 -2 -58 -14 -58 -44 1 -41 -14
-70 -28 -56 -13 13 -17 211 -4 229 16 21 27 13 27 -18 0 -18 6 -33 15 -36 18
-7 65 3 64 14 -1 4 0 9 1 12 6 17 5 52 -2 56 -4 3 -6 10 -2 15 10 17 12 59 3
65 -5 3 -5 13 -1 22 9 19 7 80 -2 89 -3 4 -30 7 -58 7 l-53 1 0 45 c0 36 -4
46 -19 48 -24 5 -35 -14 -31 -55 1 -18 0 -33 -4 -34 -74 -10 -85 -8 -120 20
-80 62 -355 211 -390 211 -6 0 -19 4 -29 9 -25 14 -139 48 -192 57 -25 4 -47
8 -50 9 -34 9 -277 24 -284 18z m-28 -191 c2 -112 0 -132 -13 -133 -49 -4
-101 -4 -110 -2 -11 3 -14 237 -4 248 4 3 19 8 35 11 16 3 30 6 31 7 1 2 15 2
30 1 l28 -1 3 -131z m157 -2 l0 -134 -66 -1 -66 -1 -1 138 -2 139 68 -3 67 -3
0 -135z m98 125 c12 -1 32 -3 45 -4 22 -1 22 -3 22 -129 l0 -129 -63 2 c-73 1
-94 10 -76 31 9 11 8 14 -2 14 -11 0 -11 2 0 9 12 8 12 12 2 25 -11 13 -11 16
0 16 12 0 12 2 0 9 -11 7 -11 9 0 14 12 5 12 7 0 15 -7 5 -9 12 -4 15 5 3 7
29 6 58 -3 54 7 72 34 62 8 -3 24 -7 36 -8z m-424 -249 c-4 -4 -32 -9 -62 -10
l-56 -2 1 51 c1 28 -2 56 -5 62 -4 7 -3 14 2 17 4 3 5 24 1 46 -4 22 -4 42 0
45 7 4 54 15 82 19 10 1 21 6 25 10 10 10 21 -226 12 -238z m636 193 c13 -12
13 -199 0 -200 -5 -1 -34 -2 -62 -3 l-53 -1 0 116 c0 63 3 118 6 121 6 7 94
-20 109 -33z m-800 -102 c1 -80 -2 -97 -15 -98 -15 -2 -67 -1 -85 0 -10 1 -13
158 -4 165 12 8 86 34 94 32 6 -2 10 -43 10 -99z m907 65 c26 -12 51 -22 56
-22 4 0 9 -27 10 -61 1 -34 5 -65 8 -70 6 -11 6 -10 -68 -13 -45 -2 -59 1 -62
13 -6 25 -4 181 3 177 3 -1 27 -12 53 -24z m-1033 -87 c-1 -41 -4 -75 -8 -75
-4 0 -8 34 -9 75 -1 42 3 75 8 75 5 0 9 -34 9 -75z m-38 8 c2 -83 -8 -101 -44
-81 -11 6 -17 6 -14 0 4 -5 -4 -7 -17 -5 -21 4 -24 10 -22 50 1 41 4 47 36 64
53 28 60 25 61 -28z m1229 -3 c14 -11 30 -20 36 -20 17 0 54 -44 46 -55 -4 -6
-35 -11 -69 -11 -60 -1 -62 0 -65 25 -5 41 3 81 16 81 6 0 22 -9 36 -20z
m-1348 -27 c6 -21 0 -43 -12 -43 -9 0 -20 47 -12 55 10 10 20 5 24 -12z m-55
-28 c0 -10 -10 -15 -26 -15 -25 1 -25 1 -7 15 25 19 33 19 33 0z m-307 -79 c0
-34 -28 -74 -32 -45 -7 66 -4 79 18 79 9 0 14 -11 14 -34z m70 24 c0 -5 -5
-10 -11 -10 -5 0 -7 5 -4 10 3 6 8 10 11 10 2 0 4 -4 4 -10z m2005 -30 c3 -5
2 -10 -4 -10 -5 0 -13 5 -16 10 -3 6 -2 10 4 10 5 0 13 -4 16 -10z m95 -39 c0
-59 -11 -70 -32 -33 -12 21 -16 57 -9 80 1 1 10 2 21 2 17 0 20 -7 20 -49z"/>
<path d="M425 1433 c-6 -5 -10 -85 -10 -203 0 -123 4 -195 10 -196 6 0 34 -8
64 -17 83 -26 91 -24 91 22 0 37 -1 39 -45 50 -25 6 -45 15 -46 19 0 4 -1 23
-2 44 -2 36 -2 36 38 35 l40 -2 0 40 c0 34 -3 40 -22 41 -45 2 -55 12 -51 51
4 36 5 36 48 37 42 1 44 2 43 31 0 17 -1 35 -2 40 -1 12 -141 19 -156 8z"/>
<path d="M630 1430 c-8 -5 -13 -77 -16 -227 l-5 -220 32 -7 c18 -3 34 -4 37
-1 3 2 5 59 6 125 1 66 4 120 7 120 4 0 10 -26 14 -57 4 -32 9 -66 12 -78 2
-11 6 -29 8 -40 1 -11 8 -38 14 -60 9 -36 14 -40 46 -42 19 -1 36 1 36 5 2 8
7 194 11 360 2 61 1 113 -2 113 -28 6 -70 7 -69 1 1 -4 0 -11 -1 -17 -1 -5 -2
-54 -2 -107 0 -54 -4 -98 -9 -98 -5 0 -8 3 -7 8 2 9 -12 93 -27 152 -2 8 -4
22 -4 30 -3 36 -50 59 -81 40z"/>
<path d="M2038 1435 c-2 -2 -26 -5 -53 -7 l-50 -3 2 -140 c5 -334 6 -353 26
-336 13 10 17 11 43 11 13 0 15 14 13 83 -2 126 -2 130 19 118 13 -7 17 -24
19 -68 3 -122 0 -113 32 -113 17 0 33 5 36 10 4 6 11 7 17 4 7 -5 8 -2 2 7 -4
7 -9 54 -11 103 -2 68 -6 91 -19 100 -15 11 -15 15 -1 43 36 69 16 158 -41
179 -17 7 -32 10 -34 9z m14 -120 c5 -21 3 -36 -8 -53 -21 -32 -29 -21 -29 39
-1 38 3 49 14 47 8 -2 18 -16 23 -33z"/>
<path d="M2161 1425 c-4 -5 -6 -23 -5 -40 9 -90 9 -127 2 -131 -5 -3 -5 -10
-2 -16 12 -19 12 -88 0 -88 -8 0 -8 -2 0 -8 7 -4 11 -34 10 -74 -1 -64 0 -67
21 -63 53 9 58 18 58 107 l0 83 30 5 c26 4 30 10 33 43 3 36 3 37 -32 37 -25
0 -36 5 -37 15 -4 58 -4 59 31 63 43 5 45 6 46 48 l2 35 -75 -3 c-41 -1 -78
-7 -82 -13z"/>
<path d="M872 1421 c-4 -4 -9 -94 -11 -201 -1 -107 -4 -216 -4 -243 -2 -35 2
-47 13 -48 8 -1 25 -3 38 -4 25 -3 26 3 22 163 -1 52 3 82 9 82 6 0 11 -10 12
-22 4 -78 19 -219 24 -228 9 -14 48 -5 51 12 1 9 5 36 8 60 4 24 9 79 12 123
6 84 16 116 28 96 4 -6 2 -11 -5 -11 -8 0 -7 -5 2 -17 8 -9 10 -14 4 -11 -8 5
-13 -193 -6 -258 0 -6 16 -11 34 -10 l32 1 3 90 c3 125 4 198 2 210 -2 6 -2
14 -1 19 6 33 6 188 0 192 -13 7 -97 11 -107 5 -9 -6 -21 -93 -22 -160 0 -19
-3 -31 -7 -27 -8 8 -11 31 -14 124 -1 34 -4 63 -8 63 -24 4 -103 4 -109 0z
m81 -215 c6 -15 -1 -26 -15 -26 -4 0 -8 9 -8 20 0 23 15 27 23 6z"/>
<path d="M1231 1416 c-5 -6 -12 -42 -16 -81 -4 -38 -12 -73 -18 -77 -9 -6 -8
-8 1 -8 7 0 11 -3 8 -8 -2 -4 -7 -39 -11 -77 -4 -39 -9 -72 -10 -75 -2 -3 -6
-39 -10 -80 -3 -41 -8 -83 -11 -92 -3 -10 -2 -18 3 -19 4 0 20 -2 35 -4 32 -4
41 7 43 49 2 35 28 57 47 38 7 -7 12 -29 13 -49 0 -40 15 -50 59 -39 18 4 22
12 20 38 -1 18 -3 33 -4 33 -1 0 -3 16 -5 35 -1 19 -5 56 -9 83 -8 61 -21 180
-32 282 -3 27 -7 51 -9 53 -9 9 -86 7 -94 -2z m53 -245 c4 -74 2 -91 -10 -91
-13 0 -19 13 -15 34 2 10 9 98 10 135 2 55 12 7 15 -78z"/>
<path d="M1446 1420 l-40 -5 0 -260 0 -260 24 -2 c55 -4 57 0 55 105 -1 53 2
106 8 116 9 19 10 19 20 0 6 -10 11 -57 13 -104 1 -47 2 -91 3 -97 1 -8 16
-13 39 -13 l37 0 -1 98 c-2 113 -10 158 -31 167 -14 5 -14 7 -1 23 31 35 41
135 18 183 -20 43 -69 59 -144 49z m71 -106 c15 -40 2 -104 -22 -104 -7 0 -11
21 -11 60 1 42 5 60 14 60 7 0 15 -7 19 -16z"/>
<path d="M1634 1415 c-7 -20 2 -490 9 -502 4 -7 20 -9 40 -6 17 3 48 6 67 7
47 1 60 16 60 66 l0 41 -47 -3 -48 -3 0 55 c0 37 4 55 13 56 6 1 23 2 36 3 25
1 35 30 28 79 -3 19 -9 22 -40 20 l-37 -3 -3 48 c-2 33 1 47 10 49 28 3 54 6
67 7 7 0 11 7 8 16 -4 8 -2 17 3 20 5 3 5 17 -1 33 -9 27 -11 28 -86 27 -41 0
-77 -4 -79 -10z"/>
</g>
</svg>
